<?xml version="1.0" encoding="UTF-8" standalone="no"?>
<svg
   xmlns:dc="http://purl.org/dc/elements/1.1/"
   xmlns:cc="http://creativecommons.org/ns#"
   xmlns:rdf="http://www.w3.org/1999/02/22-rdf-syntax-ns#"
   xmlns:svg="http://www.w3.org/2000/svg"
   xmlns="http://www.w3.org/2000/svg"
   xmlns:xlink="http://www.w3.org/1999/xlink"
   version="1.1"
   id="svg2"
   xml:space="preserve"
   width="128"
   height="128"
   viewBox="0 0 170.66667 170.66667"><metadata
     id="metadata8"><rdf:RDF><cc:Work
         rdf:about=""><dc:format>image/svg+xml</dc:format><dc:type
           rdf:resource="http://purl.org/dc/dcmitype/StillImage" /><dc:title></dc:title></cc:Work></rdf:RDF></metadata><defs
     id="defs6"><linearGradient
       id="linearGradient1002"><stop
         style="stop-color:#000000;stop-opacity:1;"
         offset="0"
         id="stop998" /><stop
         style="stop-color:#000000;stop-opacity:0;"
         offset="1"
         id="stop1000" /></linearGradient><clipPath
       clipPathUnits="userSpaceOnUse"
       id="clipPath18"><path
         d="M 0,128 H 128 V 0 H 0 Z"
         id="path16" /></clipPath><clipPath
       clipPathUnits="userSpaceOnUse"
       id="clipPath26"><path
         d="M 12.0601,19.333 H 115.939 V 6.33301 H 12.0601 Z"
         id="path24" /></clipPath><clipPath
       clipPathUnits="userSpaceOnUse"
       id="clipPath30"><path
         d="m 115.939,12.833 c 0,-3.59 -23.253,-6.5 -51.939,-6.5 -28.686,0 -51.94,2.91 -51.94,6.5 0,3.59 23.254,6.5 51.94,6.5 28.686,0 51.939,-2.91 51.939,-6.5"
         id="path28" /></clipPath><linearGradient
       x1="0"
       y1="0"
       x2="1"
       y2="0"
       gradientUnits="userSpaceOnUse"
       gradientTransform="matrix(-9e-7,-20.403738,-20.403738,9e-7,63.999512,23.25)"
       spreadMethod="pad"
       id="linearGradient42"><stop
         style="stop-opacity:0;stop-color:#ffffff"
         offset="0"
         id="stop36" /><stop
         style="stop-opacity:1;stop-color:#ffffff"
         offset="0.510753"
         id="stop38" /><stop
         style="stop-opacity:0;stop-color:#ffffff"
         offset="1"
         id="stop40" /></linearGradient><mask
       maskUnits="userSpaceOnUse"
       x="0"
       y="0"
       width="1"
       height="1"
       id="mask44"><g
         id="g54"><g
           id="g52"><g
             id="g50"><g
               id="g48"><path
                 d="M -32768,32767 H 32767 V -32768 H -32768 Z"
                 style="fill:url(#linearGradient42);stroke:none"
                 id="path46" /></g></g></g></g></mask><linearGradient
       x1="0"
       y1="0"
       x2="1"
       y2="0"
       gradientUnits="userSpaceOnUse"
       gradientTransform="matrix(-9e-7,-20.403738,-20.403738,9e-7,63.999512,23.25)"
       spreadMethod="pad"
       id="linearGradient62"><stop
         style="stop-opacity:1;stop-color:#cccccc"
         offset="0"
         id="stop56" /><stop
         style="stop-opacity:1;stop-color:#cccccc"
         offset="0.510753"
         id="stop58" /><stop
         style="stop-opacity:1;stop-color:#cccccc"
         offset="1"
         id="stop60" /></linearGradient><linearGradient
       x1="0"
       y1="0"
       x2="1"
       y2="0"
       gradientUnits="userSpaceOnUse"
       gradientTransform="matrix(-4.2e-6,-95.676285,-95.676285,4.2e-6,63.999512,105)"
       spreadMethod="pad"
       id="linearGradient102"><stop
         style="stop-opacity:1;stop-color:#e04628"
         offset="0"
         id="stop98" /><stop
         style="stop-opacity:1;stop-color:#ba2713"
         offset="1"
         id="stop100" /></linearGradient><clipPath
       clipPathUnits="userSpaceOnUse"
       id="clipPath112"><path
         d="M 0,128 H 128 V 0 H 0 Z"
         id="path110" /></clipPath><radialGradient
       xlink:href="#linearGradient1002"
       id="radialGradient1006"
       gradientUnits="userSpaceOnUse"
       gradientTransform="matrix(0.99999996,-0.01337781,0.00334415,0.24997763,-0.4993897,113.14491)"
       cx="85.333336"
       cy="149.33333"
       fx="85.333336"
       fy="149.33333"
       r="53.333336" /></defs><g
     id="g85"
     transform="matrix(1.081507,0,0,1.0815,-6.9558105,-6.9682661)"><ellipse
       style="opacity:0.9;fill:url(#radialGradient1006);fill-opacity:1;stroke-width:1.33333"
       id="path891"
       cx="85.333336"
       cy="149.33333"
       rx="53.333336"
       ry="13.333334" /><g
       id="g12"
       transform="matrix(1.3333333,0,0,-1.3333333,0,170.66667)"><g
         id="g14"
         clip-path="url(#clipPath18)"><g
           id="g82"
           transform="translate(64,7.9854)"><path
             d="m 0,0 c -14.529,0 -27.946,4.322 -37.779,12.17 -10.168,8.115 -15.767,19.513 -15.767,32.095 0,19.164 9.236,41.735 29.507,46.157 6.942,4.97 14.146,7.093 24.039,7.093 9.893,0 17.097,-2.123 24.039,-7.093 C 44.31,86 53.546,63.429 53.546,44.265 53.546,31.683 47.946,20.285 37.779,12.17 27.946,4.322 14.529,0 0,0"
             style="display:inline;fill:#a01f12;fill-opacity:1;fill-rule:nonzero;stroke:none"
             id="path60" /></g></g></g><g
       id="g86"
       transform="matrix(1.3333333,0,0,-1.3333333,0,170.66667)"
       style="display:inline"><g
         id="g88"><g
           id="g94"><g
             id="g96"><path
               d="M 40.375,97.474 C 20.375,93.25 11.454,70.504 11.454,52.25 v 0 C 11.454,26.436 34.979,8.986 64,8.986 v 0 c 29.02,0 52.546,17.45 52.546,43.264 v 0 c 0,18.254 -8.921,41 -28.921,45.224 v 0 C 80.5,102.625 73.217,104.5 64,104.5 v 0 c -9.216,0 -16.5,-1.875 -23.625,-7.026"
               style="fill:url(#linearGradient102);stroke:none"
               id="path104" /></g></g></g></g><g
       id="g106"
       transform="matrix(1.3333333,0,0,-1.3333333,0,170.66667)"><g
         id="g108"
         clip-path="url(#clipPath112)"><g
           id="g114"
           transform="translate(90.2568,72.5547)"><path
             d="M 0,0 C -1.027,0 -2.17,0.861 -4.883,2.983 -9.148,6.32 -16.261,11.883 -26.257,15.041 -36.256,11.882 -43.367,6.319 -47.633,2.982 -50.345,0.861 -51.486,0 -52.513,0 c -0.426,0 -0.813,0.165 -1.09,0.464 -2.033,2.197 1.961,12.439 8.458,20.127 -4.01,-0.336 -8.87,-1.867 -12.865,-3.127 -3.111,-0.981 -5.567,-1.755 -6.951,-1.755 -1.087,0 -1.538,0.489 -1.724,0.9 -0.457,1.003 0.199,2.585 0.829,3.736 3.045,5.564 11.467,12.758 25.18,14.721 1.681,0.241 3.401,0.363 5.112,0.363 1.802,0 3.589,-0.133 5.326,-0.394 1.158,14.16 2.652,14.16 3.648,14.16 0.939,0 8.427,-1.241 8.427,-3.718 0,-0.34 0,-1.11 -4.19,-10.455 1.471,0.224 3.312,0.407 5.404,0.407 1.711,0 3.43,-0.122 5.111,-0.363 13.714,-1.963 22.136,-9.157 25.181,-14.721 0.63,-1.151 1.284,-2.734 0.828,-3.736 -0.187,-0.41 -0.637,-0.9 -1.724,-0.9 -1.384,0 -3.842,0.775 -6.952,1.755 C 1.5,18.724 -3.359,20.255 -7.369,20.591 -0.873,12.903 3.123,2.662 1.09,0.464 0.812,0.165 0.426,0 0,0"
             style="fill:#378429;fill-opacity:1;fill-rule:nonzero;stroke:none"
             id="path116" /></g><g
           id="g118"
           transform="translate(78.2773,106.6309)"><path
             d="m 0,0 c -5.231,0.749 -9.59,0.152 -12.066,-0.379 1.562,3.454 4.882,10.895 4.882,11.779 0,1.157 -5.593,2.719 -7.426,2.719 -1.504,0 -2.447,-10.539 -2.738,-14.327 -2.562,0.473 -6.537,0.876 -11.207,0.208 -19.012,-2.722 -26.078,-15.212 -25.24,-17.053 0.837,-1.842 14.678,5.043 22.909,4.616 -7.575,-7.979 -11.436,-18.948 -10.003,-20.496 1.432,-1.548 10.222,9.874 26.612,14.945 16.389,-5.071 25.178,-16.493 26.612,-14.945 1.433,1.548 -2.428,12.517 -10.004,20.496 8.232,0.427 22.072,-6.458 22.909,-4.616 C 26.078,-15.212 19.013,-2.722 0,0"
             style="fill:#4cad3e;fill-opacity:1;fill-rule:nonzero;stroke:none"
             id="path120" /></g></g></g><g
       id="layer1" /></g></svg>
