<?xml version="1.0" encoding="UTF-8"?>
<svg width="32" height="32" version="1.1" viewBox="0 0 170.67 170.67" xml:space="preserve" xmlns="http://www.w3.org/2000/svg" xmlns:cc="http://creativecommons.org/ns#" xmlns:dc="http://purl.org/dc/elements/1.1/" xmlns:rdf="http://www.w3.org/1999/02/22-rdf-syntax-ns#" xmlns:xlink="http://www.w3.org/1999/xlink"><metadata><rdf:RDF><cc:Work rdf:about=""><dc:format>image/svg+xml</dc:format><dc:type rdf:resource="http://purl.org/dc/dcmitype/StillImage"/><dc:title/></cc:Work></rdf:RDF></metadata><defs><clipPath id="clipPath18"><path d="m0 128h128v-128h-128z"/></clipPath><linearGradient id="linearGradient102" x2="1" gradientTransform="matrix(-4.2e-6 -95.676 -95.676 4.2e-6 64 105)" gradientUnits="userSpaceOnUse"><stop stop-color="#e04628" offset="0"/><stop stop-color="#ba2713" offset="1"/></linearGradient><clipPath id="clipPath112"><path d="m0 128h128v-128h-128z"/></clipPath><radialGradient id="radialGradient1006" cx="85.333" cy="149.33" r="53.333" gradientTransform="matrix(1 -.013378 .0033442 .24998 -.49939 113.14)" gradientUnits="userSpaceOnUse"><stop offset="0"/><stop stop-opacity="0" offset="1"/></radialGradient></defs><ellipse cx="85.333" cy="149.33" rx="53.333" ry="13.333" fill="url(#radialGradient1006)" opacity=".9" stroke-width="1.3333"/><g transform="matrix(1.3333 0 0 -1.3333 0 170.67)"><g clip-path="url(#clipPath18)"><g transform="translate(64,7.9854)"><path d="m0 0c-14.529 0-27.946 4.322-37.779 12.17-10.168 8.115-15.767 19.513-15.767 32.095 0 19.164 9.236 41.735 29.507 46.157 6.942 4.97 14.146 7.093 24.039 7.093s17.097-2.123 24.039-7.093c20.271-4.422 29.507-26.993 29.507-46.157 0-12.582-5.6-23.98-15.767-32.095-9.833-7.848-23.25-12.17-37.779-12.17" fill="#a01f12"/></g></g></g><g transform="matrix(1.3333 0 0 -1.3333 0 170.67)"><path d="m40.375 97.474c-20-4.224-28.921-26.97-28.921-45.224 0-25.814 23.525-43.264 52.546-43.264 29.02 0 52.546 17.45 52.546 43.264 0 18.254-8.921 41-28.921 45.224-7.125 5.151-14.408 7.026-23.625 7.026-9.216 0-16.5-1.875-23.625-7.026" fill="url(#linearGradient102)"/></g><g transform="matrix(1.3333 0 0 -1.3333 0 170.67)"><g clip-path="url(#clipPath112)"><g transform="translate(90.257 72.555)"><path d="m0 0c-1.027 0-2.17 0.861-4.883 2.983-4.265 3.337-11.378 8.9-21.374 12.058-9.999-3.159-17.11-8.722-21.376-12.059-2.712-2.121-3.853-2.982-4.88-2.982-0.426 0-0.813 0.165-1.09 0.464-2.033 2.197 1.961 12.439 8.458 20.127-4.01-0.336-8.87-1.867-12.865-3.127-3.111-0.981-5.567-1.755-6.951-1.755-1.087 0-1.538 0.489-1.724 0.9-0.457 1.003 0.199 2.585 0.829 3.736 3.045 5.564 11.467 12.758 25.18 14.721 1.681 0.241 3.401 0.363 5.112 0.363 1.802 0 3.589-0.133 5.326-0.394 1.158 14.16 2.652 14.16 3.648 14.16 0.939 0 8.427-1.241 8.427-3.718 0-0.34 0-1.11-4.19-10.455 1.471 0.224 3.312 0.407 5.404 0.407 1.711 0 3.43-0.122 5.111-0.363 13.714-1.963 22.136-9.157 25.181-14.721 0.63-1.151 1.284-2.734 0.828-3.736-0.187-0.41-0.637-0.9-1.724-0.9-1.384 0-3.842 0.775-6.952 1.755-3.995 1.26-8.854 2.791-12.864 3.127 6.496-7.688 10.492-17.929 8.459-20.127-0.278-0.299-0.664-0.464-1.09-0.464" fill="#378429"/></g><g transform="translate(78.277 106.63)"><path d="m0 0c-5.231 0.749-9.59 0.152-12.066-0.379 1.562 3.454 4.882 10.895 4.882 11.779 0 1.157-5.593 2.719-7.426 2.719-1.504 0-2.447-10.539-2.738-14.327-2.562 0.473-6.537 0.876-11.207 0.208-19.012-2.722-26.078-15.212-25.24-17.053 0.837-1.842 14.678 5.043 22.909 4.616-7.575-7.979-11.436-18.948-10.003-20.496 1.432-1.548 10.222 9.874 26.612 14.945 16.389-5.071 25.178-16.493 26.612-14.945 1.433 1.548-2.428 12.517-10.004 20.496 8.232 0.427 22.072-6.458 22.909-4.616 0.838 1.841-6.227 14.331-25.24 17.053" fill="#4cad3e"/></g></g></g></svg>
